PathFileType	4	(X/Y/Z)	RBDS011\RBDS011runT45.trc
DataRate	CameraRate	NumFrames	NumMarkers	Units	OrigDataRate	OrigDataStartFrame	OrigNumFrames
150.000000	150.000000	5	33	mm	150.000000	1687	4500
Frame#	Time	L.ASIS			L.Heel.Bottom			L.Heel.Lateral			L.Heel.Top			L.Iliac.Crest			L.MT1			L.MT5			L.PSIS			L.Shank.Bottom.Lateral			L.Shank.Bottom.Medial			L.Shank.Top.Lateral			L.Shank.Top.Medial			L.Thigh.Bottom.Lateral			L.Thigh.Bottom.Medial			L.Thigh.Top.Lateral			L.Thigh.Top.Medial			R.ASIS			R.ASY			R.Heel.Bottom			R.Heel.Lateral			R.Heel.Top			R.Iliac.Crest			R.MT1			R.MT5			R.PSIS			R.Shank.Bottom.Lateral			R.Shank.Bottom.Medial			R.Shank.Top.Lateral			R.Shank.Top.Medial			R.Thigh.Bottom.Lateral			R.Thigh.Bottom.Medial			R.Thigh.Top.Lateral			R.Thigh.Top.Medial			
		X1	Y1	Z1	X2	Y2	Z2	X3	Y3	Z3	X4	Y4	Z4	X5	Y5	Z5	X6	Y6	Z6	X7	Y7	Z7	X8	Y8	Z8	X9	Y9	Z9	X10	Y10	Z10	X11	Y11	Z11	X12	Y12	Z12	X13	Y13	Z13	X14	Y14	Z14	X15	Y15	Z15	X16	Y16	Z16	X17	Y17	Z17	X18	Y18	Z18	X19	Y19	Z19	X20	Y20	Z20	X21	Y21	Z21	X22	Y22	Z22	X23	Y23	Z23	X24	Y24	Z24	X25	Y25	Z25	X26	Y26	Z26	X27	Y27	Z27	X28	Y28	Z28	X29	Y29	Z29	X30	Y30	Z30	X31	Y31	Z31	X32	Y32	Z32	X33	Y33	Z33	

1688	11.24666666666667	2405.950383669518	958.4913545481718	917.5189710702945	1905.310021132158	90.0451113078488	1033.969973112686	1931.379579629423	95.56906164089875	993.4319908771832	1928.222235370481	133.4733799623974	1033.670394086033	2346.343579475751	1031.034502511164	889.9537571680384	2123.947396297964	39.29295574730519	1066.334048453241	2087.5130637134	41.1174842915072	954.2550992018701	2248.249035726033	1005.188596252186	1004.470826704296	2035.86127241241	199.9661030634665	967.9323798534663	2007.419814606281	228.1088813207876	1006.129406461241	2073.419571114597	267.6167231948231	947.2586594965002	2046.778605637425	295.4913673654703	985.1360443466937	2259.283540255713	582.1722583487185	895.9467653076869	2200.492355242821	588.7948158134664	938.1579890044478	2257.566226584041	691.461239912382	881.7163779213528	2204.596446037022	698.5260563273746	924.9926494805909	2424.446469075833	962.2022519404634	1164.095169057567	2315.726593409353	227.4375342535405	1124.384002940711	2154.594644861055	332.0805712187978	1114.241455690354	2183.688539252909	323.2775019078959	1156.22490270178	2200.19669968996	354.4033254137914	1115.810457167117	2367.6953816775	1018.644559937809	1205.16082912191	2300.952369750788	162.1870887530167	1072.263881877951	2276.100021772011	175.0805498382087	1186.701687156299	2253.386713111473	1006.156658552998	1103.823122420851	2297.794815091406	365.9138889256158	1169.237695516567	2284.304446524653	397.3534847217264	1130.995382152285	2363.294720278991	417.6290424500996	1185.860561881821	2344.366450059214	449.0109874618919	1147.067094907179	2538.112224904789	642.7715902333559	1224.754800247848	2492.733260996672	605.3817802130376	1180.090052852567	2461.745012246202	720.2348693431049	1234.750730846527	2415.801954326843	684.5182627724334	1196.830041878338	
1689	11.25333333333333	2408.157567849097	960.7488716882317	918.1842051349549	1881.133443401163	102.9554980271626	1032.315167387291	1907.314431339017	106.2165722054448	991.6571927735201	1906.217963909973	144.9295594706848	1031.204800291578	2352.156863381612	1035.057598360325	889.8456783177878	2095.054277869156	39.72706200106339	1065.898078870247	2059.143161953404	41.66914249269228	953.5992226471058	2250.352058835426	1008.697883050469	1003.002547196509	2012.71217585916	208.9347632721762	965.9975881263571	1984.804903384889	236.5233015753847	1005.007643053608	2050.267225327654	276.846095241121	946.1272671303233	2024.13279399523	304.1222209390958	984.7248790233223	2243.950772786569	589.2788374848307	895.9870929258348	2185.779518290894	598.9961338803721	938.4282980936333	2248.098064903124	698.4715316631738	882.0539818448725	2195.753855688165	708.2990155463281	925.5685331974631	2425.723902937329	968.3984385021627	1163.558736455688	2348.302019655137	214.0315168059341	1125.084658657888	2178.944585065068	304.3580779669833	1111.792502695004	2208.208805763195	298.5161798090548	1154.058173085866	2222.421426242277	330.5802203680469	1113.448359152662	2369.885174836317	1026.311508545848	1204.865793002503	2339.820153476515	147.094650725913	1073.99181611052	2312.609633737377	159.2874565552103	1187.675592994965	2254.719596867251	1010.791059084139	1102.968083536418	2318.431372267317	350.9647379733346	1167.645824920779	2302.854195176491	380.7620304556525	1128.885447584163	2379.497852986655	408.0473119333069	1183.998446816817	2358.370056037842	437.4068740383817	1144.689193034066	2543.448979032028	651.2713651362524	1222.464890835955	2497.96752394576	613.244104607704	1178.527957712619	2466.127412307158	727.5862030724152	1233.675397632896	2420.521077255291	691.4917537948064	1195.873750428211	
1690	11.26	2410.222377044199	962.9728197128227	918.7595224087556	1858.765356814939	117.2817233138793	1030.162642314925	1884.964768365696	118.0974162618907	989.4377166957109	1886.248902836722	157.4462322602875	1028.320458040707	2358.616138586626	1038.877689975271	889.6776413357903	2066.719455410021	40.52469709770684	1065.284716053646	2031.503183093873	42.71368082884064	952.6951434523328	2252.566503242758	1012.486454178499	1001.724320249427	1991.254696262457	218.5404399225534	963.7804065867733	1963.792447620818	245.4555251380102	1003.609229840156	2028.700957059889	286.827779128827	944.840915412348	2002.994352835639	313.3846368220822	984.1715937642628	2229.382811786774	597.1923132079	896.2130114155279	2172.092899457003	609.8999128796722	939.0747736698893	2239.187560273987	706.0238326840756	882.5459669381926	2187.695357082875	718.4838464643689	926.40978428584	2427.195391223035	974.4646477820706	1162.737900881566	2381.745321034599	201.6576726334475	1125.779154112075	2205.518547613724	276.8121578192924	1108.918399187292	2234.528378714825	274.0153019856423	1151.54563965423	2246.493623938692	306.7545239520872	1110.68585294411	2372.624820231187	1033.993925050117	1204.442900850556	2379.877385051997	133.5529101905768	1075.874216392901	2350.017975433045	144.9475864526807	1188.749100999602	2256.308314410037	1015.649461222347	1102.256637520619	2339.939477312005	336.0116489481663	1165.826658472254	2322.48875007881	363.9832328498453	1126.512145435216	2396.010999521611	398.130179849389	1182.00468972899	2372.958448406848	425.2543344934122	1142.111780868811	2547.839530668849	659.0176373184039	1219.938202910205	2501.941865131536	620.4523018419617	1177.030143885604	2469.952243718586	734.5638617963359	1232.412247035495	2424.465343669825	698.1965927997664	1194.958713988773	
1691	11.26666666666667	2412.070798014129	965.1285758272502	919.2077343817498	1838.282228149633	132.8902330895081	1027.524467095372	1864.393674688132	131.1336220308204	986.7998795618432	1868.332565322339	170.8701484293717	1025.078486594726	2365.48436796768	1042.465342107682	889.4652115397274	2038.942108132966	41.82470050685142	1064.478314431138	2004.596795386309	44.4240396250183	951.5616449999195	2254.826279635997	1016.543929472989	1000.634994770208	1971.550912172733	228.5882225055253	961.3469342421632	1944.446770690253	254.749886712713	1001.972616877346	2008.853388228981	297.3166738227383	943.4489980542221	1983.493990552282	323.0790651043303	983.4960017241407	2215.751425686529	605.6274504068174	896.6661642049542	2159.553647957684	621.1455524227204	940.1126559592662	2230.894088712681	713.8867565354046	883.2152718607667	2180.451937232873	728.7884838019282	927.5350074091513	2428.778023134819	980.2840194792299	1161.66660320898	2415.940639435901	190.5296312395211	1126.378788824592	2234.266288375349	249.7635034005159	1105.739403652864	2262.615870874781	250.0349993810794	1148.786291487422	2272.373336661527	283.2171224587658	1107.629884601208	2375.700923183653	1041.500566368181	1203.87239603818	2420.937176137557	121.8559705989377	1077.764108735356	2388.224863526917	132.2295412110128	1189.817861620856	2258.09173184276	1020.68831902614	1101.652944713822	2362.32335627384	321.2299376812203	1163.825082405599	2343.204456106609	347.2396233469897	1123.944872609272	2412.874663307512	387.9723440515684	1179.932391886943	2388.178458521529	412.6996091794754	1139.415883884613	2551.256482502424	665.8806590296954	1217.23501758621	2504.65043376857	626.8410675613321	1175.662672096481	2473.167876617276	741.0408826184552	1230.938914214032	2427.564439254926	704.4626573611679	1194.110031611494	
1692	11.27333333333333	2413.650476736276	967.1999591682057	919.503454841371	1819.679892063103	149.6396012758636	1024.472469608786	1845.583343233053	145.2428285981073	983.8211566093197	1852.393015069218	185.0578219405741	1021.5840363659	2372.493611249038	1045.829637829978	889.2363998535777	2011.701631069158	43.79839363143277	1063.485822685805	1978.386961742506	47.00041189947482	950.2483734803958	2257.068145281089	1020.853280179487	999.7121651855435	1953.581024581559	238.9124989324763	958.7873912526687	1926.764017982679	264.2886755718288	1000.165987729771	1990.790380306391	308.0829661938091	942.0136401914754	1965.707756412381	333.0302665611643	982.7348489473361	2203.224459924538	614.2707616428316	897.3657115967229	2148.271823799761	632.3484858341353	941.5305681281092	2223.27374544127	721.810854615598	884.0702238038062	2174.043795743996	738.9072481592898	928.9463188066211	2430.389217852118	985.7614616408472	1160.392707768532	2450.706660050835	180.8609025809674	1126.780249919738	2265.055440019195	223.5583759162433	1102.385522380392	2292.384912969537	226.8567290490446	1145.883368788684	2299.944614087168	260.2815671628881	1104.400742493538	2378.916524242966	1048.672290095601	1203.138720000543	2462.714282153442	112.2923850203467	1079.480977816687	2427.093192964062	121.3035869732832	1190.747436435793	2260.000173729831	1025.867083259968	1101.112030483215	2385.533785029162	306.8167563015387	1161.697501857459	2364.931676931146	330.773861603636	1121.265956435775	2430.09487780883	377.6945803092343	1177.843171860427	2404.024020163132	399.918801817774	1136.698189132065	2553.661178153755	671.7508532257133	1214.450525946733	2506.097844173647	632.2834110455852	1174.486907543331	2475.707905666666	746.8955261584092	1229.270857389648	2429.751094545074	710.1416792171558	1193.354578228189	
